<svg xmlns="http://www.w3.org/2000/svg" xmlns:xlink="http://www.w3.org/1999/xlink" xmlns:fi="http://pattern.flaticon.com/" x="0" y="0" width="700" height="350" viewBox="0 0 700 350"><rect x="0px" y="0px" width="100%" height="100%" opacity="1" fill="#ffffff"/><defs><g transform="matrix(0.1113485606373604 -0.05995691899215401 0.05995691899215401 0.1113485606373604 -32.847726823111635 22.843110275134027)" id="L1_538"><path d="M360.465,443.988c-4.574-1.161-9.207,1.638-10.342,6.204l-8.533,34.133c-1.152,4.582,1.638,9.207,6.212,10.351     c0.691,0.179,1.391,0.256,2.074,0.256c3.823,0,7.296-2.586,8.269-6.46l8.533-34.133     C367.821,449.765,365.039,445.132,360.465,443.988z"/><path d="M256,273.066c1.109,0,2.219-0.213,3.26-0.648l93.867-38.844c4.352-1.801,6.417-6.793,4.617-11.145     c-1.801-4.361-6.81-6.409-11.153-4.625L256,255.299L17.067,156.432v-2.833c0-4.71-3.823-8.533-8.533-8.533S0,148.889,0,153.599     v8.533c0,3.456,2.082,6.571,5.274,7.885l247.467,102.4C253.781,272.852,254.891,273.066,256,273.066z"/><path d="M357.513,360.49c-2.082-4.224-7.185-5.965-11.426-3.874c-16.205,8.013-43.273,17.331-81.553,18.603v-76.553     c0-4.71-3.823-8.533-8.533-8.533s-8.533,3.823-8.533,8.533v76.476c-105.958-3.379-140.151-67.567-145.067-78.251v-57.958     c0-4.71-3.823-8.533-8.533-8.533c-4.71,0-8.533,3.823-8.533,8.533v59.733c0,1.084,0.205,2.159,0.606,3.174     c1.485,3.695,37.803,90.692,170.061,90.692c46.225,0,78.618-11.213,97.647-20.617     C357.879,369.825,359.612,364.714,357.513,360.49z"/><path d="M384,452.266c-4.719,0-8.533,3.823-8.533,8.533v25.6c0,4.71,3.814,8.533,8.533,8.533c4.719,0,8.533-3.823,8.533-8.533     v-25.6C392.533,456.089,388.719,452.266,384,452.266z"/><path d="M503.467,145.066c-4.719,0-8.533,3.823-8.533,8.533v2.816l-102.4,42.146v-15.42l114.193-47.258     c3.191-1.314,5.274-4.429,5.274-7.885c0-3.456-2.082-6.562-5.265-7.885L259.26,17.714c-2.091-0.862-4.429-0.862-6.519,0     L5.274,120.114C2.082,121.437,0,124.543,0,127.999c0,3.456,2.082,6.571,5.274,7.885l247.467,102.4     c1.041,0.435,2.15,0.649,3.26,0.649s2.219-0.213,3.26-0.649l89.481-37.026c4.361-1.792,6.426-6.784,4.625-11.145     c-1.801-4.352-6.793-6.409-11.145-4.617L256,221.166L30.848,127.999L256,34.832l225.152,93.167l-97.971,40.542l-93.841-35.038     c0.495-1.775,0.794-3.601,0.794-5.504c0-14.353-14.993-25.6-34.133-25.6s-34.133,11.247-34.133,25.6     c0,14.353,14.993,25.6,34.133,25.6c8.542,0,16.162-2.33,22.084-6.084l97.382,36.361v27.341v0.009v182.878     c-9.907,3.541-17.067,12.919-17.067,24.03c0,14.114,11.486,25.6,25.6,25.6s25.6-11.486,25.6-25.6     c0-11.11-7.159-20.488-17.067-24.03v-48.435c24.499-18.492,33.28-43.119,33.664-44.211c0.307-0.896,0.469-1.843,0.469-2.79     v-59.733c0-4.71-3.814-8.533-8.533-8.533s-8.533,3.823-8.533,8.533v58.155c-1.476,3.618-6.605,14.771-17.067,25.779V217.019     l114.185-46.993c3.2-1.314,5.282-4.437,5.282-7.893v-8.533C512,148.889,508.186,145.066,503.467,145.066z M256,136.532     c-10.419,0-17.067-5.052-17.067-8.533c0-3.482,6.647-8.533,17.067-8.533s17.067,5.052,17.067,8.533     C273.067,131.481,266.419,136.532,256,136.532z M384,426.666c-4.71,0-8.533-3.831-8.533-8.533c0-4.702,3.823-8.533,8.533-8.533     s8.533,3.831,8.533,8.533C392.533,422.834,388.71,426.666,384,426.666z"/><path d="M417.877,450.192c-1.143-4.565-5.786-7.356-10.342-6.204c-4.574,1.143-7.356,5.777-6.212,10.351l8.533,34.133     c0.973,3.874,4.446,6.46,8.269,6.46c0.683,0,1.382-0.077,2.074-0.256c4.574-1.143,7.356-5.769,6.212-10.351L417.877,450.192z"/></g><g transform="matrix(0.06634891033172607 0 0 0.06634891033172607 93.0144917360235 114.01444435119629)" id="L1_540"><path d="M291.057,242.811c1.51,2.953,4.514,4.659,7.62,4.659c1.297,0,2.628-0.299,3.866-0.93     c0.503-0.256,50.731-25.771,75.503-33.596c4.489-1.425,6.98-6.221,5.555-10.709c-1.417-4.489-6.178-6.989-10.709-5.572     c-26.095,8.252-75.981,33.596-78.097,34.671C290.596,233.467,288.924,238.605,291.057,242.811z"/><path d="M298.677,145.071c1.297,0,2.628-0.299,3.866-0.93c0.503-0.256,50.731-25.771,75.503-33.596     c4.489-1.425,6.98-6.221,5.555-10.709c-1.417-4.489-6.178-6.989-10.709-5.572c-26.095,8.252-75.981,33.596-78.097,34.671     c-4.198,2.133-5.871,7.27-3.738,11.477C292.567,143.364,295.571,145.071,298.677,145.071z"/><path d="M503.469,128.004c-4.719,0-8.533,3.823-8.533,8.533v332.8c0,14.114-11.486,25.6-25.6,25.6h-204.8v-19.635     c12.442-4.352,44.851-14.498,76.8-14.498c74.334,0,124.809,16.461,125.312,16.631c2.568,0.853,5.436,0.427,7.68-1.178     c2.227-1.604,3.541-4.181,3.541-6.921V93.871c0-4.002-2.773-7.467-6.682-8.329c0,0-6.69-1.493-18.125-3.593     c-4.617-0.853-9.079,2.219-9.933,6.844c-0.853,4.642,2.21,9.088,6.844,9.941c4.361,0.802,8.013,1.51,10.829,2.074v357.188     c-19.337-5.069-62.276-14.259-119.467-14.259c-37.18,0-73.702,12.211-85.001,16.35c-10.044-4.437-40.405-16.35-77.133-16.35     c-58.778,0-107.196,9.694-128,14.618V100.475c17.041-4.19,67.371-15.138,128-15.138c31.113,0,57.796,9.685,68.267,14.063v335.804     c0,3.072,1.655,5.914,4.326,7.424c2.671,1.519,5.965,1.476,8.602-0.111c0.845-0.503,85.393-51.004,160.435-76.015     c3.49-1.169,5.837-4.42,5.837-8.098V8.537c0-2.799-1.374-5.419-3.678-7.014c-2.287-1.596-5.222-1.963-7.859-0.981     C346.856,26.15,277.771,69.141,277.079,69.568c-3.994,2.5-5.214,7.765-2.714,11.759c2.492,3.994,7.757,5.214,11.759,2.714     c0.631-0.401,60.732-37.794,123.477-63.027v331.281c-58.249,20.241-119.066,53.291-145.067,68.087V93.871     c0-3.234-1.826-6.187-4.719-7.637c-1.468-0.725-36.437-17.963-80.614-17.963c-77.107,0-136.388,16.683-138.88,17.399     c-3.661,1.041-6.187,4.395-6.187,8.201v375.467c0,2.671,1.263,5.197,3.388,6.81c1.502,1.135,3.311,1.724,5.146,1.724     c0.785,0,1.57-0.111,2.338-0.333c0.589-0.162,59.597-16.734,134.195-16.734c31.198,0,57.856,9.711,68.267,14.071v20.062h-204.8     c-14.114,0-25.6-11.486-25.6-25.6v-332.8c0-4.71-3.823-8.533-8.533-8.533s-8.533,3.823-8.533,8.533v332.8     c0,23.526,19.14,42.667,42.667,42.667h426.667c23.526,0,42.667-19.14,42.667-42.667v-332.8     C512.002,131.827,508.188,128.004,503.469,128.004z"/><path d="M291.057,191.611c1.51,2.953,4.514,4.659,7.62,4.659c1.297,0,2.628-0.299,3.866-0.93     c0.503-0.256,50.731-25.771,75.503-33.596c4.489-1.425,6.98-6.221,5.555-10.709c-1.417-4.489-6.178-6.989-10.709-5.572     c-26.095,8.252-75.981,33.596-78.097,34.671C290.596,182.267,288.924,187.405,291.057,191.611z"/><path d="M291.057,294.011c1.51,2.953,4.514,4.659,7.62,4.659c1.297,0,2.628-0.299,3.866-0.93     c0.503-0.256,50.731-25.771,75.503-33.596c4.489-1.425,6.98-6.221,5.555-10.709c-1.417-4.489-6.178-6.989-10.709-5.572     c-26.095,8.252-75.981,33.596-78.097,34.671C290.596,284.667,288.924,289.805,291.057,294.011z"/><path d="M206.748,158.366c-52.693-12.365-112.572,3.388-115.089,4.062c-4.548,1.22-7.253,5.896-6.033,10.453     c1.024,3.814,4.471,6.323,8.235,6.323c0.734,0,1.476-0.094,2.219-0.29c0.572-0.162,58.223-15.326,106.778-3.934     c4.565,1.067,9.182-1.775,10.257-6.366C214.189,164.032,211.339,159.441,206.748,158.366z"/><path d="M206.748,209.566c-52.693-12.356-112.572,3.388-115.089,4.062c-4.548,1.22-7.253,5.897-6.033,10.453     c1.024,3.814,4.471,6.323,8.235,6.323c0.734,0,1.476-0.094,2.219-0.29c0.572-0.162,58.223-15.326,106.778-3.934     c4.565,1.067,9.182-1.775,10.257-6.366C214.189,215.232,211.339,210.641,206.748,209.566z"/><path d="M291.057,345.211c1.51,2.953,4.514,4.659,7.62,4.659c1.297,0,2.628-0.299,3.866-0.93     c0.503-0.256,50.731-25.771,75.503-33.596c4.489-1.425,6.98-6.221,5.555-10.709c-1.417-4.488-6.178-6.989-10.709-5.572     c-26.095,8.252-75.981,33.596-78.097,34.671C290.596,335.867,288.924,341.005,291.057,345.211z"/><path d="M206.748,260.766c-52.693-12.356-112.572,3.379-115.089,4.062c-4.548,1.22-7.253,5.897-6.033,10.453     c1.024,3.814,4.471,6.332,8.235,6.332c0.734,0,1.476-0.102,2.219-0.299c0.572-0.162,58.223-15.326,106.778-3.934     c4.565,1.067,9.182-1.775,10.257-6.366C214.189,266.432,211.339,261.841,206.748,260.766z"/><path d="M206.748,363.166c-52.693-12.365-112.572,3.388-115.089,4.062c-4.548,1.22-7.253,5.897-6.033,10.453     c1.024,3.814,4.471,6.332,8.235,6.332c0.734,0,1.476-0.102,2.219-0.299c0.572-0.162,58.223-15.326,106.778-3.934     c4.565,1.058,9.182-1.775,10.257-6.366C214.189,368.832,211.339,364.241,206.748,363.166z"/><path d="M206.748,311.966c-52.693-12.365-112.572,3.379-115.089,4.062c-4.548,1.22-7.253,5.897-6.033,10.453     c1.024,3.814,4.471,6.332,8.235,6.332c0.734,0,1.476-0.102,2.219-0.299c0.572-0.162,58.223-15.326,106.778-3.934     c4.565,1.067,9.182-1.775,10.257-6.366C214.189,317.632,211.339,313.041,206.748,311.966z"/></g><g transform="matrix(0.11600970780734503 -0.02209708735992448 0.02209708735992448 0.11600970780734503 82.644660437179 234.95836916546034)" id="L1_542"><path d="M50.918,445.739c1.143,0,2.295-0.23,3.405-0.717c27.221-11.853,73.19-18.022,136.678-18.347l6.161,12.339     c2.116,4.216,7.245,5.939,11.452,3.814c4.215-2.108,5.931-7.228,3.814-11.443l-8.525-17.067     c-1.451-2.893-4.403-4.719-7.637-4.719c-69.538,0-118.204,6.468-148.762,19.772c-4.318,1.886-6.289,6.912-4.412,11.238     C44.493,443.819,47.625,445.739,50.918,445.739z"/><path d="M494.933,460.8h-17.067v-42.667c0-2.261-0.905-4.437-2.5-6.033l-51.268-51.26c1.604-3.337,2.569-7.031,2.569-10.974     c0-14.114-11.486-25.6-25.6-25.6c-14.114,0-25.6,11.486-25.6,25.6s11.486,25.6,25.6,25.6c3.942,0,7.629-0.964,10.965-2.56     l48.768,48.759V460.8H17.067C7.654,460.8,0,468.454,0,477.867v25.6C0,508.177,3.823,512,8.533,512s8.533-3.823,8.533-8.533v-25.6     h477.867v25.6c0,4.71,3.814,8.533,8.533,8.533c4.719,0,8.533-3.823,8.533-8.533v-25.6C512,468.454,504.337,460.8,494.933,460.8z      M401.067,358.4c-4.71,0-8.533-3.831-8.533-8.533s3.823-8.533,8.533-8.533s8.533,3.831,8.533,8.533S405.777,358.4,401.067,358.4z     "/><path d="M121.83,255.249c6.221,16.196,26.803,68.42,41.737,90.82l1.348,2.039c10.957,16.614,29.286,44.424,91.085,44.424     c61.79,0,80.128-27.81,91.085-44.424l1.348-2.039c14.933-22.4,35.507-74.624,41.737-90.82c11.145-2.773,19.43-12.86,19.43-24.849     v-34.133c0-11.127-7.134-20.617-17.067-24.141V128c0-33.69-17.741-95.923-83.362-101.931c-0.128-4.028-1.459-7.27-2.944-9.668     C297.839,2.842,274.287,0,256,0C104.158,0,102.4,143.616,102.4,145.067c0,4.71,3.814,8.525,8.516,8.525h0.017     c4.702,0,8.516-3.806,8.533-8.516c0.017-5.222,1.937-128.009,136.533-128.009c24.132,0,33.801,5.222,35.712,8.311     c0.265,0.435,0.99,1.604-0.683,4.941c-1.323,2.645-1.178,5.786,0.375,8.303c1.562,2.509,4.301,4.045,7.262,4.045     c75.657,0,76.791,81.86,76.8,85.333v51.2c0,4.71,3.814,8.533,8.533,8.533c4.71,0,8.533,3.831,8.533,8.533V230.4     c0,4.702-3.823,8.533-8.533,8.533c-3.558,0-6.741,2.21-7.996,5.538c-0.247,0.674-25.446,67.644-41.771,92.126l-1.399,2.116     c-10.223,15.514-24.235,36.753-76.834,36.753c-52.608,0-66.611-21.239-76.834-36.753l-1.399-2.116     c-16.324-24.482-41.523-91.452-41.779-92.126c-1.246-3.328-4.429-5.538-7.987-5.538c-4.702,0-8.533-3.831-8.533-8.533v-34.133     c0-2.313,0.922-4.412,2.423-5.948c3.098,6.955,9.421,13.21,20.045,14.268l29.201,21.897C173.414,243.106,187.554,256,204.8,256     h17.067C240.691,256,256,240.691,256,221.867C256,240.691,271.309,256,290.133,256H307.2c17.237,0,31.394-12.894,33.664-29.525     l31.189-23.381c3.772-2.825,4.54-8.175,1.707-11.947c-2.825-3.772-8.175-4.548-11.947-1.707l-21.751,16.316     c-3.251-10.402-12.86-18.022-24.329-18.022H281.6c-14.114,0-25.6,11.486-25.6,25.6c0-14.114-11.486-25.6-25.6-25.6h-34.133     c-11.46,0-21.069,7.62-24.328,18.022l-16.282-12.211c6.716-16.23,12.8-40.235,14.524-57.088     c26.897-0.478,104.713-3.763,139.332-25.37c7.851,30.31,33.05,55.817,34.321,57.08c3.336,3.336,8.73,3.336,12.066,0     c3.336-3.337,3.336-8.73,0-12.066c-0.316-0.316-31.633-31.983-31.633-62.234c0-3.831-2.56-7.202-6.255-8.226     c-3.678-1.024-7.629,0.546-9.591,3.831c-12.425,20.693-93.022,29.995-146.287,29.995c-4.71,0-8.533,3.823-8.533,8.533     c0,13.85-6.545,41.515-13.508,58.539c-2.722-1.638-3.49-4.693-3.558-7.339c0-4.71-3.823-8.533-8.533-8.533     c-14.114,0-25.6,11.486-25.6,25.6V230.4C102.4,242.389,110.686,252.476,121.83,255.249z M273.067,213.333     c0-4.702,3.823-8.533,8.533-8.533h34.133c4.71,0,8.533,3.831,8.533,8.533v8.533c0,9.412-7.654,17.067-17.067,17.067h-17.067     c-9.412,0-17.067-7.654-17.067-17.067V213.333z M187.733,213.333c0-4.702,3.831-8.533,8.533-8.533H230.4     c4.702,0,8.533,3.831,8.533,8.533v8.533c0,9.412-7.654,17.067-17.067,17.067H204.8c-9.412,0-17.067-7.654-17.067-17.067V213.333z     "/><path d="M298.658,307.226c0.009-4.702-3.797-8.533-8.499-8.559c-0.162,0-15.42-0.171-30.345-7.637     c-2.398-1.195-5.231-1.195-7.629,0c-14.925,7.467-30.191,7.637-30.319,7.637c-4.71,0-8.533,3.823-8.533,8.533     s3.823,8.533,8.533,8.533c0.725,0,16.845-0.094,34.133-7.654c17.28,7.56,33.408,7.654,34.133,7.654     C294.835,315.733,298.641,311.927,298.658,307.226z"/><path d="M315.708,409.95c-3.191,0.017-6.118,1.809-7.578,4.659l-8.533,16.708c-2.142,4.198-0.469,9.344,3.721,11.486     c1.237,0.631,2.569,0.93,3.874,0.93c3.106,0,6.101-1.698,7.612-4.651l6.153-12.066c46.643,0.128,84.207,3.618,111.735,10.377     c4.591,1.135,9.199-1.672,10.317-6.246c1.126-4.582-1.664-9.199-6.246-10.325C406.878,413.474,366.345,409.651,315.708,409.95z"/><path d="M247.467,418.133V435.2c0,4.71,3.823,8.533,8.533,8.533s8.533-3.823,8.533-8.533v-17.067c0-4.71-3.823-8.533-8.533-8.533     S247.467,413.423,247.467,418.133z"/><path d="M247.467,324.267c-4.71,0-8.533,3.823-8.533,8.533c0,4.71,3.823,8.533,8.533,8.533h17.067     c4.719,0,8.533-3.823,8.533-8.533c0-4.71-3.814-8.533-8.533-8.533H247.467z"/></g><g transform="matrix(0.1390955385117501 0.03245562669283682 -0.03245562669283682 0.1390955385117501 234.01557639862816 223.5588444109992)" id="L1_549"><path d="M37.984,161.696c0,4.142,3.358,7.5,7.5,7.5s7.5-3.358,7.5-7.5v-58.627c0-3.034-1.827-5.768-4.63-6.929   c-2.801-1.16-6.028-0.519-8.173,1.626L21.177,116.77c-2.929,2.929-2.929,7.678,0,10.606c2.929,2.929,7.678,2.929,10.606,0   l6.201-6.201V161.696z"/><path d="M82.279,31.807l6.201-6.201v40.521c0,4.142,3.358,7.5,7.5,7.5s7.5-3.358,7.5-7.5V7.5c0-3.034-1.827-5.768-4.63-6.929   c-2.801-1.16-6.028-0.519-8.173,1.626L71.673,21.201c-2.929,2.929-2.929,7.678,0,10.606C74.602,34.736,79.351,34.736,82.279,31.807   z"/><path d="M167.815,96.14c-2.801-1.16-6.028-0.519-8.173,1.626l-19.004,19.004c-2.929,2.929-2.929,7.678,0,10.606   c2.929,2.929,7.678,2.929,10.606,0l6.201-6.201v40.521c0,4.142,3.358,7.5,7.5,7.5s7.5-3.358,7.5-7.5v-58.627   C172.445,100.036,170.618,97.301,167.815,96.14z"/><path d="M135.217,188.445c-2.801-1.16-6.028-0.519-8.173,1.626l-19.004,19.004c-2.929,2.929-2.929,7.678,0,10.606   c2.929,2.929,7.678,2.929,10.606,0l6.201-6.201v22.197c0,4.142,3.358,7.5,7.5,7.5s7.5-3.358,7.5-7.5v-40.303   C139.847,192.34,138.02,189.606,135.217,188.445z"/><path d="M122.504,143.42v-22.074c0-14.213-11.563-25.776-25.776-25.776h-0.369c-14.213,0-25.776,11.563-25.776,25.776v22.074   c0,14.213,11.563,25.776,25.776,25.776h0.369C110.941,169.196,122.504,157.633,122.504,143.42z M107.504,143.42   c0,5.942-4.834,10.776-10.776,10.776h-0.369c-5.942,0-10.776-4.834-10.776-10.776v-22.074c0-5.942,4.834-10.776,10.776-10.776   h0.369c5.942,0,10.776,4.834,10.776,10.776V143.42z"/><path d="M216.745,95.569h-0.369c-14.213,0-25.776,11.563-25.776,25.776v22.074c0,14.213,11.563,25.776,25.776,25.776h0.369   c14.213,0,25.776-11.563,25.776-25.776v-22.074C242.521,107.133,230.958,95.569,216.745,95.569z M227.521,143.42   c0,5.942-4.834,10.776-10.776,10.776h-0.369c-5.942,0-10.776-4.834-10.776-10.776v-22.074c0-5.942,4.834-10.776,10.776-10.776   h0.369c5.942,0,10.776,4.834,10.776,10.776V143.42z"/><path d="M147.224,0h-0.369c-14.213,0-25.776,11.563-25.776,25.776v22.074c0,14.213,11.563,25.776,25.776,25.776h0.369   c4.142,0,7.5-3.358,7.5-7.5s-3.358-7.5-7.5-7.5h-0.369c-5.942,0-10.776-4.834-10.776-10.776V25.776   c0-5.942,4.834-10.776,10.776-10.776h0.369c5.942,0,10.776,4.834,10.776,10.776c0,4.142,3.358,7.5,7.5,7.5s7.5-3.358,7.5-7.5   C173.001,11.563,161.438,0,147.224,0z"/><path d="M216.745,0h-0.369c-14.213,0-25.776,11.563-25.776,25.776v22.074c0,14.213,11.563,25.776,25.776,25.776h0.369   c14.213,0,25.776-11.563,25.776-25.776V25.776C242.521,11.563,230.958,0,216.745,0z M227.521,47.851   c0,5.942-4.834,10.776-10.776,10.776h-0.369c-5.942,0-10.776-4.834-10.776-10.776V25.776c0-5.942,4.834-10.776,10.776-10.776h0.369   c5.942,0,10.776,4.834,10.776,10.776V47.851z"/><path d="M61.682,187.874h-0.369c-14.213,0-25.776,11.563-25.776,25.776v22.074c0,14.213,11.563,25.776,25.776,25.776h0.369   c14.213,0,25.776-11.563,25.776-25.776V213.65C87.459,199.438,75.896,187.874,61.682,187.874z M72.459,235.725   c0,5.942-4.834,10.776-10.776,10.776h-0.369c-5.942,0-10.776-4.834-10.776-10.776V213.65c0-5.942,4.834-10.776,10.776-10.776h0.369   c5.942,0,10.776,4.834,10.776,10.776V235.725z"/></g><path d="M387.931,152.579l-0.023-0.42c-0.02-0.367-0.037-0.713-0.088-1.013c-0.129-0.729-0.387-1.464-0.685-2.281   c-0.089-0.236-0.153-0.487-0.214-0.738c-0.015-0.059-0.023-0.118-0.04-0.177c-0.051-0.077-0.106-0.171-0.161-0.282   c-0.056-0.112-0.104-0.238-0.144-0.368L320.997,17.487c-2.301-4.554-6.896-7.383-11.993-7.383H78.978   c-5.098,0-9.692,2.829-11.993,7.383L1.402,147.304c-0.041,0.131-0.088,0.254-0.146,0.375c-0.048,0.102-0.103,0.194-0.154,0.271   c-0.017,0.061-0.026,0.118-0.04,0.175c-0.062,0.253-0.126,0.505-0.221,0.757c-0.293,0.806-0.552,1.545-0.679,2.271   c-0.052,0.298-0.069,0.646-0.088,1.015l-0.021,0.393c-0.066,0.912-0.07,1.575-0.013,2.175c0.042,0.456,0.135,0.912,0.252,1.463   c0.155,0.741,0.345,1.401,0.579,2.025c0.173,0.451,0.379,0.908,0.627,1.388c0.109,0.217,0.194,0.424,0.275,0.631   c0.035,0.09,0.064,0.183,0.111,0.267c0.062,0.102,0.18,0.235,0.305,0.374c0.162,0.183,0.322,0.366,0.471,0.564   c0.147,0.199,0.27,0.406,0.386,0.616c0.033,0.06,0.063,0.121,0.104,0.179l180.637,210.939c2.558,2.986,6.277,4.697,10.205,4.697   c3.929,0,7.648-1.711,10.204-4.697l180.658-210.963c0.02-0.032,0.05-0.094,0.083-0.153c0.119-0.213,0.243-0.423,0.391-0.62   c0.145-0.193,0.307-0.381,0.472-0.567c0.124-0.14,0.24-0.271,0.293-0.355c0.054-0.092,0.081-0.184,0.115-0.272   c0.082-0.21,0.168-0.42,0.271-0.624c0.259-0.502,0.465-0.958,0.635-1.406c0.233-0.617,0.422-1.277,0.577-2.014   c0.112-0.531,0.209-1.003,0.253-1.464C387.999,154.137,387.995,153.493,387.931,152.579z M217.022,36.977l48.986,103.063H121.971   l48.987-103.063H217.022z M87.245,36.977h53.961L92.219,140.04H35.177L87.245,36.977z M42.531,166.915H91.95l52.456,118.966   L42.531,166.915z M193.991,331.717L121.32,166.916h145.341L193.991,331.717z M243.575,285.882l52.458-118.966h49.418   L243.575,285.882z M295.764,140.04L246.776,36.977h53.96l52.071,103.063H295.764z" transform="matrix(0.09365407397493648 -0.048700119225534445 0.048700119225534445 0.09365407397493648 180.35459652300997 54.25545613539396)" id="L1_550"/></defs><g fi:class="KUsePattern" opacity="1"><pattern id="pattern_L1_538" width="350" height="350" patternUnits="userSpaceOnUse"><use xlink:href="#L1_538" x="-350" y="-350"/><use xlink:href="#L1_538" x="0" y="-350"/><use xlink:href="#L1_538" x="350" y="-350"/><use xlink:href="#L1_538" x="-350" y="0"/><use xlink:href="#L1_538" x="0" y="0"/><use xlink:href="#L1_538" x="350" y="0"/><use xlink:href="#L1_538" x="-350" y="350"/><use xlink:href="#L1_538" x="0" y="350"/><use xlink:href="#L1_538" x="350" y="350"/></pattern><rect x="0" y="0" width="100%" height="100%" fill="url(#pattern_L1_538)"/></g><g fi:class="KUsePattern"><pattern id="pattern_L1_540" width="350" height="350" patternUnits="userSpaceOnUse"><use xlink:href="#L1_540" x="-350" y="-350"/><use xlink:href="#L1_540" x="0" y="-350"/><use xlink:href="#L1_540" x="350" y="-350"/><use xlink:href="#L1_540" x="-350" y="0"/><use xlink:href="#L1_540" x="0" y="0"/><use xlink:href="#L1_540" x="350" y="0"/><use xlink:href="#L1_540" x="-350" y="350"/><use xlink:href="#L1_540" x="0" y="350"/><use xlink:href="#L1_540" x="350" y="350"/></pattern><rect x="0" y="0" width="100%" height="100%" fill="url(#pattern_L1_540)"/></g><g fi:class="KUsePattern"><pattern id="pattern_L1_542" width="350" height="350" patternUnits="userSpaceOnUse"><use xlink:href="#L1_542" x="-350" y="-350"/><use xlink:href="#L1_542" x="0" y="-350"/><use xlink:href="#L1_542" x="350" y="-350"/><use xlink:href="#L1_542" x="-350" y="0"/><use xlink:href="#L1_542" x="0" y="0"/><use xlink:href="#L1_542" x="350" y="0"/><use xlink:href="#L1_542" x="-350" y="350"/><use xlink:href="#L1_542" x="0" y="350"/><use xlink:href="#L1_542" x="350" y="350"/></pattern><rect x="0" y="0" width="100%" height="100%" fill="url(#pattern_L1_542)"/></g><g fi:class="KUsePattern"><pattern id="pattern_L1_549" width="350" height="350" patternUnits="userSpaceOnUse"><use xlink:href="#L1_549" x="-350" y="-350"/><use xlink:href="#L1_549" x="0" y="-350"/><use xlink:href="#L1_549" x="350" y="-350"/><use xlink:href="#L1_549" x="-350" y="0"/><use xlink:href="#L1_549" x="0" y="0"/><use xlink:href="#L1_549" x="350" y="0"/><use xlink:href="#L1_549" x="-350" y="350"/><use xlink:href="#L1_549" x="0" y="350"/><use xlink:href="#L1_549" x="350" y="350"/></pattern><rect x="0" y="0" width="100%" height="100%" fill="url(#pattern_L1_549)"/></g><g fi:class="KUsePattern"><pattern id="pattern_L1_550" width="350" height="350" patternUnits="userSpaceOnUse"><use xlink:href="#L1_550" x="-350" y="-350"/><use xlink:href="#L1_550" x="0" y="-350"/><use xlink:href="#L1_550" x="350" y="-350"/><use xlink:href="#L1_550" x="-350" y="0"/><use xlink:href="#L1_550" x="0" y="0"/><use xlink:href="#L1_550" x="350" y="0"/><use xlink:href="#L1_550" x="-350" y="350"/><use xlink:href="#L1_550" x="0" y="350"/><use xlink:href="#L1_550" x="350" y="350"/></pattern><rect x="0" y="0" width="100%" height="100%" fill="url(#pattern_L1_550)"/></g></svg>